<?xml version="1.0" encoding="utf-8"?>
<!-- Generator: Adobe Illustrator 27.0.0, SVG Export Plug-In . SVG Version: 6.00 Build 0)  -->
<svg version="1.1" id="Layer_1" xmlns="http://www.w3.org/2000/svg" xmlns:xlink="http://www.w3.org/1999/xlink" x="0px" y="0px"
	 viewBox="0 0 2000 2000" style="enable-background:new 0 0 2000 2000;" xml:space="preserve">
<style type="text/css">
	.st0{filter:url(#Adobe_OpacityMaskFilter);}
	.st1{fill:#F1F2F2;}
	.st2{mask:url(#XMLID_00000138551194349646438650000004139022197250179771_);}
	.st3{fill:url(#XMLID_00000057863949122907894010000014455026107102611102_);}
	.st4{fill:#E461A4;}
	.st5{fill:#111342;}
	.st6{fill:#520F43;}
	.st7{fill:#FFFFFF;}
	.st8{fill:#B9C5E5;}
</style>
<defs>
	<filter id="Adobe_OpacityMaskFilter" filterUnits="userSpaceOnUse" x="0" y="0" width="2000" height="2000">
		<feColorMatrix  type="matrix" values="1 0 0 0 0  0 1 0 0 0  0 0 1 0 0  0 0 0 1 0"/>
	</filter>
</defs>
<mask maskUnits="userSpaceOnUse" x="0" y="0" width="2000" height="2000" id="XMLID_00000122706891344375840080000002059270860027855290_">
	<g class="st0">
		<circle class="st1" cx="1000" cy="1000" r="859.3"/>
	</g>
</mask>
<g id="XMLID_2529_" style="mask:url(#XMLID_00000122706891344375840080000002059270860027855290_);">
	
		<radialGradient id="XMLID_00000015321784334280831830000014678785188926752691_" cx="1000" cy="1000" r="1152.86" gradientUnits="userSpaceOnUse">
		<stop  offset="0" style="stop-color:#FFFFFF"/>
		<stop  offset="1" style="stop-color:#C8CEE8"/>
	</radialGradient>
	
		<rect id="XMLID_2428_" style="fill:url(#XMLID_00000015321784334280831830000014678785188926752691_);" width="2000" height="2000"/>
	<g id="XMLID_1662_">
		<path id="XMLID_1738_" class="st4" d="M1627.74,936.5c-3.88,0.53-8.94,2.14-15.38,5.62c-6.45,3.46-14.14,8.82-24.06,16.49
			c-18.46,14.99-31.24,34.39-39.62,50.56c4.26-19.62,7.52-39.37,9.67-59.1c0.75-7.02,1.26-14.05,1.76-21.06
			c2-0.67,4.33-1.52,6.99-2.61c4.17-1.72,9.06-4,14.31-7.01c5.12-3.02,10.53-6.76,15.97-11.39c5.43-4.63,10.84-10.14,15.9-16.68
			c4.95-6.53,9.07-14.08,12.66-22.73c1.76-4.32,3.33-8.92,4.66-13.78c1.33-4.87,2.51-10.01,2.87-15.4
			c0.98-10.79,0.75-22.67-1.04-35.48c0,0-3.58-2.58-10.98,0.08c-7.43,2.58-18.66,10.67-34.34,29.72c-2.72,3.29-5.18,6.69-7.4,10.13
			c-1.11,1.72-2.16,3.46-3.15,5.21c-1.08,1.75-2.14,3.52-3.13,5.28c-3.97,7.07-7.1,14.2-9.56,21.07c-0.85,2.54-1.64,5.03-2.41,7.49
			c-0.31-9.27-0.63-18.5-0.94-27.66c-0.02-5.19-0.77-10.31-1.24-15.42c-0.52-5.11-1.04-10.21-1.55-15.28l-0.77-7.59
			c-0.08-0.77-0.16-1.55-0.24-2.32c2.06-1.14,4.85-2.75,7.93-4.9c6.89-4.76,15.87-12.14,24.18-22.77
			c4.16-5.31,8.15-11.44,11.62-18.43c1.82-3.51,3.17-7.17,4.4-11.06c1.23-3.89,2.27-7.99,3.08-12.3c1.55-8.6,2.52-18.16,1.62-28.32
			c-1.1-10.1-3.52-20.97-7.54-32.41c0,0-3.78-1.73-10.13,2.07c-6.38,3.72-15.26,13.2-26.18,33.65
			c-7.17,13.95-11.82,29.03-13.69,42.55c-0.61,5.1-1.13,10.05-1.54,14.71c-0.77-4.08-1.61-8.13-2.68-12.1
			c-2.34-9.53-4.43-19.02-6.92-28.28c-2.85-9.16-5.66-18.21-8.44-27.14c-0.54-1.73-1.09-3.45-1.63-5.17
			c1.46-1.29,3.12-2.82,4.86-4.64c5.83-5.99,13.2-14.95,19.27-26.95c3.04-6,5.75-12.77,7.79-20.27c1.99-7.48,2.76-15.49,2.74-24.26
			c-0.04-4.37-0.35-8.91-0.96-13.6c-0.64-4.67-1.42-9.58-3.05-14.35c-3.04-9.66-7.51-19.82-13.67-30.22c0,0-4.03-0.94-9.52,4.03
			c-5.53,4.91-12.39,15.94-19.11,38.11c-1.17,3.84-2.08,7.66-2.75,11.46c-0.35,1.9-0.59,3.77-0.87,5.67
			c-0.32,1.92-0.58,3.83-0.8,5.72c-0.87,7.57-0.98,14.88-0.6,21.73c0.18,2.23,0.37,4.41,0.57,6.56c-0.71-1.51-1.43-3.01-2.1-4.52
			c-3.7-7.98-7.33-15.83-10.9-23.53c-4.05-7.46-8.03-14.78-11.92-21.95c-1.28-2.31-2.52-4.62-3.77-6.9
			c1.36-1.72,3.09-4.02,5.02-6.94c4.27-6.61,9.43-16.24,12.85-28.43c3.37-12.13,5.39-27.13,1.86-43.03
			c-1.63-8.03-4.36-16.47-8.44-25.13c-4.47-8.36-10.39-16.87-17.89-25.34c0,0-3.9-0.16-8.13,5.36c-4.27,5.47-8.74,16.78-11.05,38.36
			c-2.33,19.98,1.64,38.97,6.39,53.94c-0.39-0.61-0.79-1.25-1.17-1.86c-4.35-6.03-8.58-11.91-12.7-17.62
			c-2.06-2.85-4.1-5.67-6.1-8.44c-1.01-1.38-1.97-2.78-3.01-4.1c-1.07-1.3-2.13-2.59-3.19-3.87c-4.22-5.11-8.3-10.06-12.24-14.84
			c-1.28-1.56-2.54-3.09-3.8-4.61c0.78-1.57,1.65-3.4,2.56-5.53c3.26-7.48,6.37-17.67,7.57-30.25c0.57-6.26,0.59-13.07-0.23-20.28
			c-0.42-3.6-1.01-7.33-1.91-11.08c-1-3.65-2.26-7.37-3.8-11.14c-3.08-7.54-7.32-15.28-12.94-22.99c-2.72-3.95-6.23-7.4-9.89-11.04
			c-3.71-3.58-7.8-7.11-12.28-10.55c0,0-3.87,0.57-7.01,6.77c-3.19,6.15-5.49,18.06-3.78,39.6c0.69,7.34,1.77,14.9,3.69,21.7
			c1.86,6.87,4.32,13.26,7.04,19.08c0.81,1.63,1.6,3.25,2.37,4.85c-0.31-0.32-0.63-0.66-0.94-0.97
			c-6.94-6.51-13.13-12.33-18.52-17.39c-2.72-2.5-5.13-4.94-7.54-6.94c-2.42-2-4.61-3.81-6.58-5.43c-2.35-1.94-4.32-3.57-6-4.96
			c-1.82-2.66-3.96-5.61-6.43-8.73c-1.5-1.89-3.11-3.84-4.84-5.81c-1.79-1.89-3.75-3.71-5.78-5.56c-4.08-3.67-8.59-7.27-13.45-10.48
			c-4.89-3.17-9.94-6.21-15.67-7.93c-11.28-3.71-23.48-4.7-35.65-0.57c0,0,0.08,2.69,4.02,7.87c1.97,2.59,4.9,5.8,9.26,9.6
			c2.18,1.9,4.72,3.95,7.68,6.14c3.02,2.1,6.24,4.68,9.93,7.44c7.4,5.48,14.73,9.28,21.64,11.98c6.82,2.81,12.92,4.89,18.37,6.03
			c2.94,0.65,5.6,1.07,7.96,1.36c0.66,0.55,1.32,1.1,2.05,1.7c1.92,1.6,4.07,3.39,6.43,5.35s4.71,4.38,7.37,6.84
			c5.27,4.98,11.32,10.71,18.1,17.13c1.77,1.8,3.57,3.69,5.4,5.63c-0.61-0.35-1.21-0.71-1.84-1.05c-1.26-0.68-2.51-1.38-3.86-2
			c-1.37-0.59-2.78-1.17-4.21-1.72c-11.5-4.38-24.57-7.41-38.24-5.73c-20.16,2.88-29.8,8.31-34.85,12.67
			c-4.99,4.4-5.23,7.86-5.23,7.86c3.13,2.83,6.31,5.31,9.53,7.47c1.61,1.08,3.24,2.08,4.87,3.01c1.61,0.96,3.12,1.96,4.71,2.83
			c6.28,3.53,12.74,5.95,19.25,7.56c3.24,0.82,6.56,1.37,9.75,1.87c3.13,0.56,6.26,0.95,9.36,1.18c6.21,0.48,12.31,0.37,18.12-0.1
			c11.55-0.89,22.15-3.42,29.34-5.33c2.91-0.8,5.34-1.57,7.25-2.23c1.06,1.3,2.13,2.61,3.21,3.94c3.85,4.7,7.83,9.57,11.94,14.6
			c1.03,1.26,2.07,2.52,3.11,3.8c1.02,1.3,1.95,2.68,2.94,4.03c1.95,2.72,3.93,5.49,5.95,8.3c2.81,3.93,5.7,7.97,8.62,12.05
			c-11.57-8.16-26.21-15.01-42.76-15.76c-21.47-0.9-32.49,2.97-38.56,6.59c-6.02,3.68-6.94,7.27-6.94,7.27
			c5.36,7.17,11.21,12.87,17.44,17.46c5.98,4.78,12.05,8.66,18.52,11.58c3.21,1.47,6.48,2.73,9.78,3.82
			c1.65,0.54,3.3,1.04,4.96,1.49c1.6,0.49,3.17,0.97,4.76,1.39c6.34,1.7,12.7,2.77,18.83,3.41c12.25,1.28,23.54,0.84,31.74,0.05
			c2.02-0.17,3.84-0.37,5.45-0.58c1.42,2.57,2.8,5.19,4.24,7.81c3.79,7.04,7.65,14.22,11.59,21.54c3.46,7.56,6.99,15.26,10.58,23.09
			c1.26,2.87,2.62,5.73,3.89,8.64c-2.13-2.48-4.48-4.94-7.12-7.29c-9.61-8.81-20.96-17.03-35.67-20.3
			c-20.87-4.92-32.41-3.2-39.05-0.8c-6.6,2.47-8.2,5.81-8.2,5.81c3.85,8.01,8.48,14.66,13.7,20.31c4.97,5.77,10.13,10.73,15.92,14.8
			c2.86,2.05,5.82,3.9,8.84,5.59c3.03,1.68,6.13,3.19,9,4.65c5.88,2.87,11.91,5.14,17.79,6.94c11.76,3.6,22.91,5.35,31.11,6.17
			c3.04,0.29,5.55,0.49,7.59,0.61c0.47,1.52,0.94,3.04,1.42,4.57c2.68,8.75,5.4,17.62,8.15,26.59c2.4,9.07,4.39,18.37,6.65,27.7
			c0.02,0.06,0.03,0.13,0.04,0.19c-0.58-0.84-1.13-1.68-1.76-2.51c-4.04-5.66-8.73-11.23-14.12-16.21
			c-1.35-1.25-2.73-2.46-4.18-3.62c-1.54-1.14-3.11-2.24-4.74-3.28c-3.24-2.09-6.66-3.99-10.26-5.62
			c-20.71-9.36-33.04-9.83-40.44-8.64c-7.38,1.27-9.73,4.44-9.73,4.44c2.34,9.12,5.76,16.96,10.01,23.89
			c2.24,3.43,4.21,6.76,6.44,9.86c2.23,3.1,4.64,5.99,7.2,8.7c5.04,5.43,10.91,10.09,16.52,14.27c5.52,4.2,11.32,7.8,17.06,10.89
			c11.49,6.18,22.75,10.32,31.11,12.88c1.94,0.58,3.66,1.08,5.21,1.51c0.15,1.26,0.27,2.53,0.38,3.8l0.72,7.43
			c0.48,4.96,0.97,9.95,1.46,14.95c0.43,5.01,1.16,10.01,1.15,15.09c0.29,9.88,0.59,19.82,0.89,29.83
			c-0.99-2.89-2.14-5.82-3.54-8.77c-5.75-12.58-13.53-25.29-26.62-34.48c-18.44-13.32-30.44-16.28-37.94-16.62
			c-7.48-0.26-10.42,2.36-10.42,2.36c0.48,9.35,2.28,17.69,5.07,25.31c2.57,7.63,5.51,14.58,9.52,20.91
			c3.84,6.33,8.71,12.08,13.3,17.3c4.61,5.22,9.61,9.92,14.65,14.11c5.03,4.19,10.15,7.87,14.88,11.02c4.63,3.15,9,5.78,12.76,7.87
			c2.58,1.44,4.84,2.6,6.74,3.54c-0.52,6.76-1.03,13.54-1.78,20.31c-1.63,14.43-3.89,28.86-6.67,43.24
			c-2.77-15.01-8.79-31.02-20.78-44c-2-2.22-3.9-4.25-5.79-6.1c-1.95-1.86-3.83-3.54-5.63-5.06c-3.61-3.04-6.93-5.46-9.96-7.38
			c-6.07-3.85-11.01-5.76-14.9-6.68c-7.78-1.82-11.33,0.29-11.33,0.29c-0.61,4.92-0.82,9.64-0.69,14.2
			c-0.07,4.53,0.1,8.89,0.63,13.11c0.52,4.22,1.35,8.31,2.41,12.27c0.86,3.92,1.98,7.73,3.32,11.42
			c5.62,14.79,13.44,27.61,22.21,38.53c2.18,2.72,4.4,5.32,6.6,7.77c2.12,2.43,4.23,4.73,6.31,6.87c4.15,4.29,8.14,7.99,11.6,11
			c1.45,1.26,2.79,2.38,4.03,3.39c-2.98,10.24-6.24,20.4-9.81,30.46c-4.7,13.45-10.03,26.66-15.84,39.63
			c0.27-2.85,0.49-5.76,0.6-8.73c-0.2-14.72-2.55-30.51-11.11-44.94c-6.06-10.42-11.52-17.48-16.73-22.58
			c-5.17-5.06-9.61-8-13.22-9.73c-7.23-3.45-11.1-2.16-11.1-2.16c-0.79,2.32-1.39,4.64-2.06,6.89c-0.7,2.24-1.3,4.45-1.81,6.64
			c-1.01,4.38-1.64,8.69-1.96,12.92c-0.79,8.41-0.74,16.39,0.49,24.23c0.65,3.93,1.23,7.68,2.07,11.38
			c0.83,3.7,1.86,7.33,3.03,10.88c2.35,7.1,5.31,13.89,8.18,20.04c5.92,12.4,12.92,22.99,18.45,30.42c1.74,2.33,3.26,4.28,4.58,5.93
			c-6.16,11.12-12.63,22.02-19.46,32.61c-5.29,8.18-10.79,16.19-16.44,24.03c0.07-0.3,0.16-0.59,0.23-0.9
			c3.85-15.06,4.22-32.74-0.87-49.45c-8.1-24.46-17.2-35.03-23.84-40.29c-6.71-5.18-11.09-4.76-11.09-4.76
			c-2.82,4.38-5.17,8.74-7.11,13.11c-0.98,2.18-1.81,4.38-2.64,6.53c-0.89,2.12-1.68,4.23-2.38,6.35
			c-2.81,8.47-4.08,17.06-4.98,25.19c-0.37,4.12-0.48,8.23-0.39,12.3c0.13,4.1,0.39,8.12,0.69,11.99c0.69,7.8,2.06,15.42,3.8,22.62
			c1.81,7.25,3.7,13.86,5.77,19.88c2.06,6.01,4.22,11.38,6.19,15.85c0.76,1.72,1.47,3.27,2.16,4.71
			c-8.53,9.66-17.31,18.96-26.36,27.78c-9.57,9.36-19.37,18.22-29.33,26.66c1.26-2.22,2.5-4.49,3.7-6.83
			c1.7-3.48,3.41-6.97,4.72-10.82c1.32-3.84,2.47-7.79,3.38-11.83c1.8-8.11,2.78-16.43,1.94-25.33c-1.09-12.77-3.3-22.17-5.83-29.27
			c-2.58-7.12-5.61-12.03-8.27-15.32c-5.39-6.6-9.67-7.13-9.67-7.13c-3.49,3.81-6.99,7.28-9.83,11.08c-2.95,3.7-5.31,7.7-7.7,11.42
			c-4.75,7.45-7.89,15.53-10.51,23.31c-2.62,7.77-4.24,15.75-5.18,23.69c-1.1,7.73-1.54,15.39-1.5,22.76
			c0.15,14.85,1.76,27.97,3.52,37.55c0.52,2.84,1.05,5.3,1.54,7.44c-6.82,4.8-13.66,9.42-20.52,13.81
			c-13.05,8.35-26.14,15.89-39.15,22.77c10.48-12.76,19.33-28.78,21.98-47.33c1-6.69,1.48-12.58,1.61-17.79
			c0.09-5.25-0.25-9.94-0.76-13.95c-1.05-8.05-2.96-13.73-4.96-17.78c-4.02-8.08-8.35-9.69-8.35-9.69
			c-9.04,6.13-16.95,12.09-23.32,19.11c-6.5,6.81-11.97,13.83-16.33,21.58c-4.54,7.4-8.2,15.11-11.1,23.06
			c-1.43,4.01-2.76,7.89-3.96,11.71c-1.18,3.85-2.21,7.69-3.1,11.48c-1.78,7.59-3.03,14.97-3.89,21.77
			c-0.91,6.67-1.46,12.73-1.74,17.9c-0.1,1.77-0.16,3.39-0.2,4.93c-2.94,1.15-5.88,2.29-8.77,3.42c-3.62,1.42-7.18,2.85-10.81,3.98
			c-7.2,2.41-14.24,4.76-21.11,7.05c-13.01,3.62-25.3,7.28-37.17,9.84c1.91-1.23,3.82-2.51,5.72-3.87c3.34-2.3,6.57-5.07,9.68-8.03
			c3.12-2.95,6.13-6.09,8.95-9.42c2.81-3.39,5.5-6.77,7.82-10.72c2.33-3.91,4.42-8.02,6.19-12.33c5.13-12.5,7.57-22.32,8.45-30.51
			c0.91-8.07,0.43-14.04-0.53-18.46c-1.95-8.82-5.73-11.43-5.73-11.43c-2.56,0.87-5.02,1.83-7.4,2.85c-2.38,1.02-4.75,1.87-7,2.93
			c-4.51,2.06-8.7,4.4-12.61,7c-7.91,4.91-14.85,10.45-20.93,16.88c-6.18,6-11.57,12.62-16.3,19.6c-2.35,3.54-4.58,6.98-6.67,10.38
			c-2.08,3.43-4.01,6.91-5.8,10.36c-3.58,6.91-6.59,13.76-9.09,20.14c-2.51,6.31-4.54,11.99-6.08,16.95
			c-0.86,2.72-1.55,5.15-2.13,7.29c-0.14,0.02-0.29,0.03-0.43,0.05c-5.07,0.63-9.91,1.22-14.51,1.79
			c-9.21,0.86-17.47,1.31-24.63,1.88c-0.43,0.03-0.82,0.06-1.24,0.09c-6.54,0.65-17.62,2.25-29.05,6.13
			c-17.04-4.81-30.1-6.17-33.88-6.49c-6.3-0.45-13.31-0.89-21.03-1.61c-4.59-0.57-9.43-1.16-14.51-1.79
			c-0.14-0.02-0.29-0.04-0.43-0.05c-0.58-2.14-1.27-4.57-2.13-7.29c-1.54-4.95-3.57-10.63-6.08-16.95
			c-2.5-6.38-5.51-13.23-9.09-20.14c-1.79-3.46-3.72-6.93-5.8-10.36c-2.09-3.4-4.32-6.84-6.67-10.38
			c-4.73-6.98-10.12-13.59-16.3-19.6c-6.07-6.43-13.02-11.97-20.93-16.88c-3.91-2.59-8.1-4.94-12.61-7c-2.25-1.06-4.62-1.92-7-2.93
			c-2.37-1.03-4.84-1.98-7.4-2.85c0,0-3.78,2.61-5.73,11.43c-0.96,4.41-1.44,10.39-0.53,18.46c0.88,8.19,3.32,18.01,8.45,30.51
			c1.77,4.31,3.85,8.41,6.19,12.33c2.32,3.95,5.01,7.34,7.82,10.72c2.82,3.34,5.83,6.48,8.95,9.42c3.12,2.96,6.34,5.73,9.68,8.03
			c1.9,1.36,3.81,2.63,5.72,3.87c-11.87-2.57-24.16-6.22-37.17-9.84c-6.86-2.29-13.9-4.64-21.11-7.05
			c-3.63-1.13-7.2-2.57-10.81-3.98c-2.89-1.13-5.83-2.27-8.77-3.42c-0.05-1.54-0.1-3.15-0.2-4.93c-0.28-5.17-0.82-11.23-1.74-17.9
			c-0.86-6.8-2.11-14.18-3.89-21.77c-0.89-3.79-1.92-7.64-3.1-11.48c-1.2-3.82-2.53-7.69-3.96-11.71
			c-2.9-7.94-6.55-15.66-11.1-23.06c-4.36-7.75-9.83-14.77-16.33-21.58c-6.37-7.02-14.28-12.99-23.32-19.11c0,0-4.33,1.61-8.35,9.69
			c-2,4.05-3.91,9.73-4.96,17.78c-0.51,4.01-0.85,8.7-0.76,13.95c0.13,5.2,0.61,11.09,1.61,17.79c2.65,18.55,11.5,34.58,21.98,47.33
			c-13.01-6.88-26.1-14.42-39.15-22.77c-6.86-4.38-13.7-9.01-20.52-13.81c0.49-2.14,1.02-4.61,1.54-7.44
			c1.76-9.58,3.37-22.7,3.52-37.55c0.04-7.38-0.4-15.03-1.5-22.76c-0.94-7.94-2.56-15.92-5.18-23.69
			c-2.62-7.78-5.76-15.87-10.51-23.31c-2.38-3.72-4.74-7.72-7.7-11.42c-2.84-3.81-6.35-7.28-9.83-11.08c0,0-4.28,0.53-9.67,7.13
			c-2.66,3.29-5.68,8.19-8.27,15.32c-2.54,7.1-4.74,16.5-5.83,29.27c-0.85,8.9,0.14,17.22,1.94,25.33c0.91,4.04,2.05,8,3.38,11.83
			c1.31,3.85,3.02,7.34,4.72,10.82c1.2,2.34,2.44,4.6,3.7,6.83c-9.95-8.44-19.76-17.3-29.32-26.66
			c-9.05-8.82-17.83-18.12-26.36-27.78c0.69-1.44,1.4-2.99,2.16-4.71c1.97-4.47,4.13-9.84,6.19-15.85
			c2.06-6.02,3.96-12.62,5.77-19.88c1.74-7.2,3.11-14.82,3.8-22.62c0.3-3.87,0.56-7.89,0.69-11.99c0.1-4.08-0.02-8.19-0.39-12.3
			c-0.9-8.13-2.16-16.73-4.98-25.19c-0.7-2.12-1.49-4.24-2.38-6.35c-0.82-2.15-1.66-4.36-2.64-6.53c-1.94-4.36-4.29-8.73-7.11-13.11
			c0,0-4.37-0.42-11.09,4.76c-6.64,5.27-15.74,15.84-23.84,40.29c-5.09,16.72-4.72,34.39-0.87,49.45c0.07,0.3,0.16,0.59,0.23,0.9
			c-5.65-7.84-11.14-15.85-16.44-24.03c-6.83-10.59-13.3-21.49-19.46-32.61c1.32-1.65,2.84-3.6,4.58-5.93
			c5.53-7.44,12.53-18.02,18.45-30.42c2.86-6.16,5.82-12.94,8.18-20.04c1.17-3.55,2.2-7.18,3.03-10.88
			c0.84-3.7,1.42-7.45,2.07-11.38c1.23-7.83,1.28-15.82,0.49-24.23c-0.31-4.24-0.95-8.54-1.96-12.92c-0.51-2.19-1.1-4.4-1.81-6.64
			c-0.67-2.25-1.26-4.57-2.06-6.89c0,0-3.87-1.29-11.1,2.16c-3.61,1.74-8.06,4.67-13.22,9.73c-5.22,5.09-10.67,12.15-16.73,22.58
			c-8.55,14.44-10.91,30.22-11.11,44.94c0.11,2.97,0.33,5.88,0.6,8.73c-5.8-12.97-11.13-26.18-15.84-39.63
			c-3.56-10.06-6.83-20.22-9.81-30.46c1.25-1.01,2.58-2.13,4.03-3.39c3.47-3.01,7.45-6.71,11.6-11c2.08-2.15,4.19-4.44,6.31-6.87
			c2.2-2.45,4.43-5.05,6.6-7.77c8.76-10.92,16.58-23.73,22.21-38.53c1.34-3.69,2.46-7.49,3.32-11.42c1.07-3.96,1.9-8.04,2.41-12.27
			c0.53-4.22,0.7-8.58,0.63-13.11c0.13-4.56-0.08-9.28-0.69-14.2c0,0-3.55-2.11-11.33-0.29c-3.89,0.92-8.83,2.83-14.9,6.68
			c-3.04,1.93-6.35,4.34-9.96,7.38c-1.8,1.52-3.68,3.2-5.63,5.06c-1.89,1.85-3.79,3.87-5.79,6.1c-11.99,12.99-18.01,28.99-20.78,44
			c-2.79-14.38-5.04-28.81-6.67-43.24c-0.75-6.77-1.27-13.55-1.78-20.31c1.9-0.94,4.17-2.1,6.74-3.54c3.76-2.1,8.13-4.73,12.76-7.87
			c4.73-3.15,9.85-6.83,14.88-11.02c5.04-4.19,10.04-8.89,14.65-14.11c4.59-5.23,9.46-10.97,13.3-17.3
			c4.01-6.33,6.94-13.28,9.52-20.91c2.79-7.61,4.59-15.96,5.07-25.31c0,0-2.94-2.61-10.42-2.36c-7.49,0.34-19.5,3.3-37.94,16.62
			c-13.09,9.19-20.88,21.9-26.62,34.48c-1.4,2.95-2.55,5.88-3.54,8.77c0.3-10,0.6-19.95,0.89-29.83
			c-0.01-5.07,0.72-10.08,1.15-15.09c0.49-5,0.97-9.99,1.46-14.95l0.72-7.43c0.12-1.27,0.23-2.54,0.38-3.8
			c1.55-0.43,3.27-0.93,5.21-1.51c8.37-2.56,19.63-6.7,31.12-12.88c5.74-3.09,11.54-6.69,17.06-10.89
			c5.6-4.18,11.48-8.84,16.52-14.27c2.55-2.71,4.96-5.6,7.2-8.7c2.23-3.1,4.2-6.43,6.44-9.86c4.25-6.93,7.68-14.78,10.01-23.89
			c0,0-2.35-3.17-9.73-4.44c-7.4-1.19-19.73-0.72-40.44,8.64c-3.6,1.64-7.02,3.53-10.26,5.62c-1.62,1.05-3.2,2.14-4.74,3.28
			c-1.46,1.16-2.83,2.38-4.18,3.62c-5.39,4.99-10.08,10.55-14.12,16.21c-0.62,0.83-1.18,1.67-1.76,2.51
			c0.02-0.06,0.03-0.13,0.04-0.19c2.26-9.33,4.25-18.63,6.65-27.7c2.75-8.98,5.47-17.84,8.15-26.59c0.47-1.53,0.95-3.05,1.42-4.57
			c2.04-0.12,4.56-0.32,7.59-0.61c8.2-0.82,19.36-2.57,31.11-6.17c5.88-1.8,11.9-4.07,17.79-6.94c2.87-1.47,5.97-2.97,9-4.65
			c3.02-1.68,5.98-3.54,8.84-5.59c5.78-4.07,10.95-9.03,15.92-14.8c5.22-5.65,9.85-12.31,13.7-20.31c0,0-1.6-3.34-8.2-5.81
			c-6.64-2.4-18.18-4.13-39.05,0.8c-14.72,3.27-26.06,11.49-35.68,20.3c-2.65,2.35-4.99,4.81-7.12,7.29
			c1.27-2.91,2.62-5.77,3.89-8.64c3.59-7.83,7.12-15.53,10.58-23.09c3.94-7.32,7.8-14.51,11.59-21.54c1.44-2.62,2.82-5.24,4.24-7.81
			c1.6,0.2,3.43,0.4,5.45,0.58c8.2,0.79,19.49,1.23,31.74-0.05c6.12-0.64,12.49-1.71,18.83-3.41c1.59-0.42,3.16-0.9,4.76-1.39
			c1.66-0.46,3.31-0.95,4.96-1.49c3.29-1.08,6.56-2.35,9.78-3.82c6.47-2.92,12.55-6.8,18.52-11.58
			c6.23-4.59,12.08-10.28,17.44-17.46c0,0-0.92-3.6-6.94-7.27c-6.07-3.62-17.08-7.49-38.56-6.59c-16.54,0.75-31.19,7.6-42.76,15.76
			c2.92-4.09,5.81-8.12,8.62-12.05c2.01-2.81,3.99-5.57,5.95-8.3c0.99-1.35,1.91-2.74,2.94-4.03c1.05-1.28,2.08-2.54,3.11-3.8
			c4.12-5.03,8.1-9.9,11.94-14.6c1.08-1.33,2.15-2.64,3.21-3.94c1.91,0.65,4.34,1.43,7.25,2.23c7.2,1.91,17.79,4.45,29.34,5.33
			c5.81,0.47,11.91,0.58,18.12,0.1c3.1-0.24,6.23-0.62,9.36-1.18c3.19-0.5,6.51-1.05,9.75-1.87c6.51-1.61,12.98-4.03,19.25-7.56
			c1.58-0.87,3.1-1.87,4.71-2.83c1.63-0.93,3.26-1.93,4.87-3.01c3.23-2.16,6.41-4.63,9.53-7.47c0,0-0.23-3.46-5.23-7.86
			c-5.04-4.36-14.69-9.79-34.85-12.67c-13.67-1.68-26.75,1.35-38.24,5.73c-1.43,0.55-2.84,1.13-4.21,1.72
			c-1.34,0.62-2.6,1.32-3.86,2c-0.63,0.35-1.22,0.7-1.84,1.05c1.83-1.94,3.63-3.83,5.4-5.63c6.78-6.42,12.84-12.15,18.1-17.13
			c2.66-2.46,5.01-4.87,7.37-6.84c2.36-1.97,4.51-3.75,6.43-5.35c0.72-0.6,1.39-1.15,2.05-1.7c2.36-0.29,5.02-0.72,7.95-1.36
			c5.45-1.13,11.55-3.22,18.37-6.03c6.91-2.7,14.24-6.51,21.64-11.98c3.69-2.76,6.91-5.34,9.93-7.44c2.96-2.19,5.5-4.24,7.68-6.14
			c4.36-3.8,7.29-7.01,9.26-9.6c3.94-5.18,4.02-7.87,4.02-7.87c-12.17-4.12-24.37-3.14-35.65,0.57c-5.73,1.72-10.79,4.76-15.67,7.93
			c-4.85,3.22-9.36,6.81-13.45,10.48c-2.03,1.85-4,3.67-5.78,5.56c-1.72,1.97-3.34,3.92-4.84,5.81c-2.47,3.12-4.61,6.07-6.43,8.73
			c-1.68,1.39-3.66,3.02-6,4.96c-1.97,1.62-4.16,3.44-6.58,5.43c-2.41,2-4.81,4.44-7.54,6.94c-5.39,5.06-11.59,10.88-18.52,17.39
			c-0.31,0.31-0.63,0.65-0.94,0.97c0.78-1.61,1.56-3.23,2.37-4.85c2.72-5.82,5.17-12.21,7.04-19.08c1.92-6.8,3-14.36,3.69-21.7
			c1.71-21.54-0.59-33.45-3.78-39.6c-3.14-6.2-7.01-6.77-7.01-6.77c-4.48,3.44-8.57,6.97-12.28,10.55
			c-3.66,3.64-7.17,7.09-9.89,11.04c-5.62,7.71-9.86,15.45-12.94,22.99c-1.54,3.77-2.8,7.49-3.8,11.14
			c-0.9,3.75-1.5,7.48-1.91,11.08c-0.82,7.21-0.8,14.02-0.23,20.28c1.19,12.58,4.3,22.77,7.57,30.25c0.91,2.12,1.77,3.95,2.55,5.53
			c-1.26,1.52-2.52,3.05-3.8,4.61c-3.94,4.78-8.02,9.73-12.24,14.84c-1.05,1.28-2.12,2.57-3.19,3.87c-1.04,1.32-2,2.73-3.01,4.1
			c-2,2.77-4.04,5.58-6.1,8.44c-4.12,5.71-8.35,11.59-12.7,17.62c-0.39,0.61-0.78,1.24-1.17,1.86c4.75-14.96,8.72-33.95,6.39-53.94
			c-2.32-21.58-6.78-32.89-11.05-38.36c-4.23-5.52-8.13-5.36-8.13-5.36c-7.5,8.46-13.43,16.98-17.89,25.34
			c-4.08,8.66-6.81,17.1-8.44,25.13c-3.53,15.9-1.51,30.9,1.86,43.03c3.43,12.19,8.58,21.82,12.85,28.43
			c1.93,2.92,3.66,5.22,5.02,6.94c-1.25,2.28-2.49,4.59-3.77,6.9c-3.89,7.17-7.87,14.49-11.92,21.95c-3.57,7.7-7.2,15.55-10.9,23.53
			c-0.67,1.51-1.39,3.02-2.1,4.52c0.2-2.15,0.4-4.33,0.57-6.56c0.38-6.85,0.26-14.17-0.6-21.73c-0.22-1.89-0.48-3.8-0.8-5.72
			c-0.28-1.9-0.52-3.77-0.87-5.67c-0.68-3.79-1.58-7.62-2.75-11.46c-6.72-22.17-13.58-33.2-19.11-38.11
			c-5.49-4.98-9.52-4.03-9.52-4.03c-6.16,10.4-10.63,20.56-13.67,30.22c-1.63,4.78-2.41,9.68-3.05,14.35
			c-0.61,4.69-0.92,9.22-0.96,13.6c-0.02,8.78,0.75,16.78,2.74,24.26c2.04,7.51,4.75,14.27,7.79,20.27
			c6.08,12.01,13.45,20.96,19.27,26.95c1.75,1.81,3.4,3.35,4.86,4.64c-0.54,1.72-1.08,3.44-1.63,5.17
			c-2.78,8.93-5.59,17.98-8.44,27.14c-2.49,9.26-4.57,18.75-6.92,28.28c-1.08,3.98-1.92,8.03-2.68,12.1
			c-0.4-4.66-0.93-9.61-1.54-14.71c-1.87-13.52-6.51-28.6-13.69-42.55c-10.91-20.45-19.79-29.93-26.18-33.65
			c-6.36-3.8-10.13-2.07-10.13-2.07c-4.03,11.44-6.44,22.3-7.54,32.41c-0.9,10.16,0.07,19.71,1.62,28.32
			c0.81,4.31,1.86,8.41,3.08,12.3c1.23,3.89,2.58,7.54,4.4,11.06c3.47,6.99,7.46,13.12,11.62,18.43
			c8.32,10.63,17.3,18.01,24.18,22.77c3.08,2.15,5.87,3.76,7.93,4.9c-0.08,0.77-0.17,1.54-0.24,2.32l-0.77,7.59
			c-0.52,5.07-1.03,10.17-1.55,15.28c-0.47,5.12-1.22,10.24-1.24,15.42c-0.31,9.16-0.62,18.39-0.94,27.66
			c-0.76-2.46-1.56-4.94-2.41-7.49c-2.46-6.87-5.59-14-9.56-21.07c-0.99-1.77-2.05-3.53-3.13-5.28c-0.99-1.75-2.04-3.49-3.15-5.21
			c-2.22-3.45-4.68-6.84-7.4-10.13c-15.68-19.06-26.92-27.15-34.34-29.72c-7.41-2.66-10.98-0.08-10.98-0.08
			c-1.79,12.81-2.02,24.69-1.04,35.48c0.36,5.39,1.54,10.54,2.87,15.4c1.33,4.87,2.9,9.46,4.66,13.78
			c3.58,8.65,7.7,16.2,12.66,22.73c5.06,6.53,10.48,12.05,15.9,16.68c5.43,4.63,10.84,8.37,15.97,11.39
			c5.25,3.01,10.14,5.29,14.31,7.01c2.66,1.09,4.99,1.93,6.99,2.61c0.51,7.01,1.01,14.04,1.76,21.06
			c2.15,19.73,5.41,39.49,9.67,59.1c-8.39-16.17-21.16-35.57-39.62-50.56c-9.93-7.67-17.61-13.03-24.06-16.49
			c-6.44-3.48-11.5-5.09-15.38-5.62c-7.76-1.08-10.8,2.2-10.8,2.2c0.32,6.48,0.78,12.66,1.91,18.49c1.17,5.83,2.62,11.34,4.31,16.53
			c1.73,5.18,3.51,10.07,5.82,14.58c2.32,4.52,4.82,8.71,7.45,12.6c10.25,15.63,23.89,26,36.27,32.91c3.13,1.72,6.18,3.24,9.22,4.54
			c3.09,1.29,6.09,2.4,8.96,3.34c5.74,1.89,10.98,3.13,15.41,3.97c4.18,0.78,7.61,1.2,10.1,1.43c2.86,9.86,5.96,19.65,9.35,29.35
			c4.62,13.38,9.86,26.53,15.54,39.46c-1.98-2.17-4.04-4.36-6.27-6.53c-5.29-5.63-11.35-11.23-18.2-16.42
			c-1.71-1.3-3.48-2.57-5.29-3.81c-1.73-1.27-3.52-2.5-5.36-3.7c-3.68-2.39-7.56-4.63-11.66-6.67c-5.9-2.93-11.24-5.34-16.06-7.29
			c-4.83-1.95-8.89-3.5-12.64-4.6c-7.44-2.23-13.05-2.83-17.2-2.54c-8.31,0.54-10.76,4.64-10.76,4.64
			c6.72,27.02,19.72,46.9,34.06,60.73c1.78,1.74,3.58,3.39,5.39,4.96c1.9,1.53,3.8,2.98,5.71,4.34c3.82,2.73,7.66,5.14,11.48,7.25
			c7.65,4.22,15.1,7.33,22.59,9.35c14.78,4.14,27.94,4.82,37.41,4.51c3.2-0.1,5.99-0.34,8.32-0.6c6.25,11.39,12.82,22.55,19.75,33.4
			c8.71,13.58,17.91,26.73,27.55,39.38c-1.98-1.48-4.03-2.97-6.17-4.49c-2.89-2.17-5.96-4.33-9.22-6.45
			c-3.26-2.11-6.7-4.18-10.31-6.14c-1.8-0.98-3.66-1.94-5.54-2.88c-1.82-0.98-3.69-1.92-5.6-2.83c-7.63-3.64-15.94-6.7-24.88-8.78
			c-25.42-6.46-40-6.45-47.99-3.95c-8,2.39-9.43,6.92-9.43,6.92c6.52,12.29,13.62,22.88,21.82,31.28c4.01,4.26,8.1,8.1,12.22,11.55
			c4.17,3.42,8.59,6.29,12.88,8.88c17.06,10.49,34.79,14.42,49.88,15.46c7.5,0.56,14.76,0.1,21.11-0.67
			c6.37-0.78,11.96-1.95,16.59-3.15c4.48-1.17,8.04-2.36,10.55-3.28c8.23,9.3,16.67,18.29,25.37,26.83
			c10.09,9.95,20.44,19.37,30.95,28.32c-17.55-7.4-39.32-14.14-63.05-14.66c-13.93-0.34-24.92,0.42-33.07,1.64
			c-8.16,1.21-13.82,3.18-17.67,5.33c-7.73,4.28-8.23,9.37-8.23,9.37c4.6,5.85,9.62,10.88,14.67,15.43
			c5.04,4.56,10.09,8.66,15.18,12.24c10.5,6.83,20.78,11.99,30.91,15.35c10.26,3.22,20.1,4.96,29.32,5.6
			c9.32,0.51,18.16-0.27,26.12-1.59c8.01-1.38,15.13-3.29,21.54-5.69c6.41-2.39,11.9-4.99,16.39-7.39c3.11-1.66,5.71-3.21,7.82-4.54
			c6.89,4.89,13.8,9.6,20.74,14.07c20.03,12.93,40.16,24.09,59.96,33.68c-20.54-4.2-47.6-7.54-75.32-1.54
			c-4.44,0.97-8.49,1.96-12.24,2.95c20.56,10.32,34.82,30.94,38.08,54.72c7.03-0.06,13.72-0.63,19.98-1.69
			c9.16-1.54,17.69-4.48,25.15-7.6c7.49-3.19,14.06-6.83,19.7-10.5c5.7-3.82,10.47-7.65,14.3-11.03c3.84-3.41,6.75-6.36,8.69-8.47
			c2.12,0.84,4.25,1.68,6.35,2.5c3.71,1.47,7.38,2.96,11.1,4.14c7.4,2.51,14.63,4.95,21.67,7.34c14.32,4.05,27.83,8.18,40.82,10.89
			c0.19,0.05,0.38,0.08,0.57,0.13c-3.91,0.32-7.95,0.76-12.12,1.37c-17.42,2.09-36.85,6.7-55.44,15.53
			c-6.72,3.25-12.62,6.43-17.7,9.31c-5.05,2.8-9.33,5.49-12.93,8.04c-7.21,5.11-11.66,9.7-14.3,13.6
			c-5.31,7.79-3.28,12.82-3.28,12.82c29.25,13.01,56.57,14.84,79.06,11.56c22.72-3.83,40.78-12.66,54.58-23.36
			c6.89-5.24,12.69-10.71,17.52-15.97c4.84-5.29,8.74-10.59,11.78-15.05c2.17-3.22,3.9-6.06,5.24-8.4
			c5.15,0.65,10.06,1.28,14.73,1.87c9.48,0.92,17.97,1.43,25.34,2.03c1.84,0.14,3.62,0.28,5.32,0.41c1.3,0.03,2.53,0.07,3.75,0.1
			c-11.99,5.97-29.1,15.68-50.3,30.93c-43.38,31.21-85.53,96.88-83.99,103.37c1.55,6.49,11.83,17.43,19.53,14.19
			c7.7-3.24,11.76-51.48,57.56-94.86c27.35-25.9,58.58-41.27,79.31-49.46c20.74,8.19,51.97,23.56,79.31,49.46
			c45.81,43.37,49.86,91.61,57.56,94.86c7.7,3.24,17.99-7.7,19.53-14.19c1.55-6.49-40.61-72.16-83.99-103.37
			c-21.2-15.26-38.31-24.97-50.3-30.93c1.22-0.03,2.44-0.06,3.75-0.1c1.71-0.13,3.48-0.26,5.32-0.41
			c7.37-0.61,15.86-1.11,25.34-2.03c4.66-0.59,9.58-1.22,14.73-1.87c1.34,2.35,3.07,5.19,5.24,8.4c3.03,4.46,6.94,9.76,11.78,15.05
			c4.83,5.25,10.64,10.73,17.52,15.97c13.79,10.71,31.86,19.53,54.58,23.36c22.48,3.28,49.81,1.44,79.06-11.56
			c0,0,2.02-5.03-3.28-12.82c-2.64-3.9-7.09-8.49-14.3-13.6c-3.6-2.55-7.88-5.24-12.93-8.04c-5.08-2.89-10.99-6.06-17.7-9.31
			c-18.6-8.83-38.02-13.44-55.44-15.53c-4.17-0.61-8.21-1.05-12.12-1.37c0.19-0.05,0.38-0.08,0.57-0.13
			c13-2.7,26.51-6.83,40.82-10.89c7.05-2.39,14.28-4.83,21.68-7.34c3.73-1.18,7.39-2.66,11.1-4.14c2.09-0.83,4.23-1.67,6.34-2.5
			c1.94,2.1,4.85,5.06,8.69,8.47c3.83,3.38,8.59,7.21,14.3,11.03c5.64,3.67,12.21,7.31,19.7,10.5c7.46,3.12,15.99,6.06,25.15,7.6
			c7.63,1.29,15.91,1.87,24.69,1.63c-0.98-22.57,11.4-43.09,29.34-55.69c-2.6-0.64-5.31-1.28-8.21-1.92
			c-27.72-6-54.77-2.66-75.32,1.54c19.8-9.59,39.93-20.76,59.96-33.68c6.94-4.47,13.85-9.19,20.74-14.07
			c2.11,1.33,4.71,2.88,7.82,4.54c4.49,2.4,9.99,5,16.39,7.39c6.42,2.4,13.53,4.3,21.54,5.69c7.96,1.32,16.8,2.1,26.12,1.59
			c9.21-0.63,19.05-2.37,29.32-5.6c10.13-3.36,20.4-8.52,30.91-15.35c5.09-3.58,10.14-7.68,15.18-12.24
			c5.05-4.55,10.07-9.58,14.67-15.43c0,0-0.49-5.08-8.23-9.37c-3.86-2.15-9.51-4.12-17.67-5.33c-8.14-1.22-19.13-1.98-33.07-1.64
			c-23.74,0.52-45.5,7.27-63.05,14.66c10.51-8.95,20.86-18.37,30.95-28.32c8.7-8.54,17.15-17.53,25.37-26.83
			c2.51,0.92,6.07,2.11,10.55,3.28c4.63,1.2,10.22,2.37,16.59,3.15c6.35,0.76,13.6,1.23,21.11,0.67
			c15.09-1.04,32.83-4.97,49.88-15.46c4.28-2.6,8.71-5.47,12.88-8.88c4.12-3.45,8.21-7.29,12.22-11.55
			c8.21-8.4,15.31-18.99,21.82-31.28c0,0-1.42-4.53-9.43-6.92c-7.99-2.5-22.56-2.52-47.99,3.95c-8.94,2.08-17.25,5.14-24.88,8.78
			c-1.91,0.91-3.77,1.86-5.6,2.83c-1.88,0.94-3.74,1.89-5.54,2.88c-3.61,1.97-7.05,4.03-10.31,6.14c-3.26,2.11-6.33,4.28-9.22,6.45
			c-2.15,1.52-4.19,3.01-6.17,4.49c9.64-12.65,18.84-25.8,27.55-39.38c6.94-10.85,13.5-22.01,19.75-33.4
			c2.33,0.26,5.12,0.51,8.32,0.6c9.47,0.31,22.63-0.36,37.41-4.51c7.49-2.02,14.93-5.13,22.59-9.35c3.82-2.11,7.66-4.52,11.48-7.25
			c1.91-1.37,3.82-2.81,5.71-4.34c1.81-1.57,3.61-3.22,5.39-4.96c14.34-13.83,27.34-33.72,34.06-60.73c0,0-2.46-4.1-10.76-4.64
			c-4.15-0.28-9.76,0.31-17.2,2.54c-3.75,1.1-7.82,2.66-12.64,4.6c-4.82,1.95-10.16,4.37-16.06,7.29c-4.1,2.03-7.98,4.27-11.66,6.67
			c-1.84,1.2-3.62,2.43-5.36,3.7c-1.8,1.24-3.57,2.51-5.29,3.81c-6.85,5.19-12.91,10.79-18.2,16.42c-2.23,2.18-4.29,4.36-6.27,6.53
			c5.68-12.93,10.92-26.08,15.54-39.46c3.39-9.7,6.49-19.49,9.35-29.35c2.49-0.23,5.92-0.65,10.1-1.43
			c4.43-0.83,9.66-2.08,15.41-3.97c2.87-0.94,5.87-2.05,8.96-3.34c3.05-1.3,6.09-2.82,9.22-4.54c12.38-6.91,26.02-17.27,36.27-32.91
			c2.63-3.89,5.13-8.09,7.45-12.6c2.32-4.52,4.09-9.4,5.82-14.58c1.69-5.19,3.14-10.7,4.31-16.53c1.13-5.83,1.59-12.02,1.91-18.49
			C1638.54,938.71,1635.5,935.42,1627.74,936.5z"/>
		<path id="XMLID_1737_" class="st5" d="M1360.39,589.61c0,0-128.9-65.76-360.39-65.76s-360.39,65.76-360.39,65.76
			C587.45,1306.21,1000,1356.1,1000,1356.1S1412.55,1306.21,1360.39,589.61z"/>
		<path id="XMLID_1736_" class="st6" d="M1000,1313.26c-20.94-4.34-99.79-25.27-173.12-104.99
			c-50.42-54.82-88.73-126.55-113.86-213.2c-30.39-104.77-41.47-231.45-33-376.89c43.96-17,154.82-52.15,319.98-52.15
			c165.09,0,275.92,35.12,319.98,52.16c8.47,145.44-2.61,272.11-33,376.88c-25.13,86.64-63.44,158.37-113.86,213.2
			C1099.79,1287.99,1020.94,1308.93,1000,1313.26z"/>
		<g id="XMLID_1699_">
			<g id="XMLID_1701_">
				<circle id="XMLID_1735_" class="st5" cx="1000" cy="905.39" r="372.31"/>
				<g id="XMLID_1703_">
					<g id="XMLID_1733_">
						<circle id="XMLID_1734_" class="st7" cx="1000" cy="905.39" r="335.3"/>
					</g>
					<path id="XMLID_1732_" class="st8" d="M1333.25,942.52c-45.31,6.04-96.83,10.71-155.3,13.28
						c-266.21,11.71-353.67-193.65-381.88-316.56C716.2,700.54,664.7,796.94,664.7,905.39c0,185.18,150.12,335.3,335.3,335.3
						C1172.63,1240.69,1314.77,1110.23,1333.25,942.52z"/>
					<g id="XMLID_1730_">
						<polygon id="XMLID_1731_" class="st7" points="714.66,788.11 731.01,847.61 706.03,965.25 721.93,846.7 						"/>
					</g>
					<path id="XMLID_1704_" class="st5" d="M1000,550.61c-38.1,0-74.81,6.06-109.24,17.23l-0.07-0.1c-0.09,0.07-0.18,0.14-0.27,0.21
						C748.26,614.24,645.22,748,645.22,905.39c0,195.63,159.15,354.78,354.78,354.78c195.63,0,354.78-159.15,354.78-354.78
						C1354.78,709.77,1195.63,550.61,1000,550.61z M1326.2,838.25c-17.36-39.26-39.23-63.97-54.85-77.97
						c-5.45-4.88-9.54-11.06-11.78-18.02l-22.91-71.08C1281.2,716.18,1313.01,773.82,1326.2,838.25z M1217.28,653.08l-80.75-39.46
						c-4.8-2.35-9-5.76-12.28-9.98l-8.06-10.38C1153.51,607.16,1187.66,627.55,1217.28,653.08z M1154.17,784.19
						c-8.64,43.34-24.45,87.17-47.91,132.92c-3.58,6.99-10.19,11.95-17.93,13.3l-108.34,18.95c-7.71,1.35-15.57-1.02-21.31-6.35
						c-30.28-28.11-60.35-62.17-89.76-101.69c-5.06-6.8-6.4-15.7-3.44-23.65l34.83-93.52c2.66-7.13,8.43-12.64,15.67-15
						c47.64-15.58,100.8-26.53,136.81-32.05c8.04-1.23,16.18,1.6,21.77,7.51l73.28,77.53
						C1153.41,768.04,1155.75,776.26,1154.17,784.19z M899.63,588.42c0.85-0.68,1.82-1.19,2.86-1.5
						c30.84-9.43,63.58-14.51,97.51-14.51c26.52,0,52.31,3.12,77.04,8.98c1.85,0.44,3.48,1.51,4.65,3.01l18.89,24.31
						c2.32,2.99,2.32,7.17,0,10.15l-23.88,30.67c-1.39,1.78-3.43,2.9-5.67,3.14c-17.69,1.86-39.61,5.7-59.02,9.51
						c-27.23,5.35-75.42,16.04-119.88,32.13c-2.35,0.85-4.95,0.6-7.08-0.69l-43.33-26.27c-4.07-2.47-5.25-7.85-2.53-11.76
						C854.08,634.16,875.34,607.84,899.63,588.42z M847.36,609.4c-20.56,23.83-37.2,48.9-45.69,64.99
						c-1.96,3.72-4.45,7.14-7.31,10.23l-54.23,58.56c-4.69,5.06-10.38,9.1-16.7,11.85l-26.06,11.33
						C728.46,698.8,781.5,643.43,847.36,609.4z M687.5,1020.59c-13.24-35.9-20.47-74.7-20.47-115.19c0-38.62,6.6-75.7,18.69-110.19
						l36.12-15.71l17.56,67.16l-38.15,168.36L687.5,1020.59z M800.21,1099.18l-69.55-72.31c-4.92-5.12-6.94-12.37-5.37-19.3
						l29.8-131.53c1.76-7.77,7.75-13.89,15.49-15.82l58.27-14.51c8.22-2.05,16.91,0.99,21.96,7.79
						c32.44,43.67,65.74,80.96,99.36,111.26c5.2,4.69,7.66,11.68,6.66,18.61l-12.55,86.39c-1.32,9.1-8.38,16.3-17.45,17.79
						l-107.96,17.81C812.01,1106.5,805.03,1104.18,800.21,1099.18z M1061.67,1222.64c0,5.88-4.31,10.83-10.12,11.74
						c-16.8,2.62-34.01,3.99-51.55,3.99c-58.43,0-113.32-15.09-161.05-41.53c-2.97-1.64-5.06-4.52-5.78-7.83l-10.85-49.48
						c-1.45-6.63,2.95-13.12,9.64-14.23l122.86-20.27c2.28-0.38,4.62-0.08,6.73,0.86l93.08,41.3c4.28,1.9,7.04,6.14,7.04,10.83
						V1222.64z M1282.16,1082.24c-42.47,67.62-108.57,118.91-186.73,142.25c-5.96,1.78-11.96-2.67-11.96-8.89v-66.75
						c0-2.39,0.92-4.68,2.57-6.41l77.56-80.93c1.42-1.48,3.26-2.44,5.29-2.74c33.94-5.05,71.94-11.8,105.67-21.66
						c6.27-1.83,12.4,3.19,11.82,9.7l-2.82,31.26C1283.42,1079.55,1282.95,1080.98,1282.16,1082.24z M1166.61,1025.69l-42.83-78.82
						c-2.7-4.97-2.7-10.96-0.08-15.99c25.32-48.64,42.36-95.3,51.67-141.56c1.51-7.48,7.87-12.99,15.49-13.48l53.5-3.43
						c4.59-0.29,9.08,1.27,12.48,4.36c20.56,18.67,55.18,60.09,69.23,135.76c0.55,2.94,0.27,6-0.74,8.81l-28.36,78.75
						c-1.74,4.84-5.6,8.6-10.45,10.3c-30.67,10.75-67.63,18.29-102.25,23.92C1177.13,1035.48,1170.05,1032.03,1166.61,1025.69z"/>
				</g>
				<polygon id="XMLID_1702_" class="st7" points="955.2,1115.28 1054.9,1158.43 1054.9,1214.75 1043.92,1165.02 				"/>
			</g>
			<path id="XMLID_1700_" class="st7" d="M975.49,968.28l113.01-19.29c6.65-1.14,13.28,2.12,16.45,8.07l50.22,94.19l-56.94-81.62
				c-3.08-4.42-8.22-6.94-13.61-6.68L975.49,968.28z"/>
		</g>
		<g id="XMLID_1663_">
			<polygon id="XMLID_1698_" class="st5" points="692.33,1537.15 615.91,1420.47 564.14,1420.47 612.02,1495.78 564.14,1571.08 
				732.15,1571.08 732.15,1537.15 			"/>
			<polygon id="XMLID_1697_" class="st5" points="1307.67,1537.15 1384.09,1420.47 1435.86,1420.47 1387.98,1495.78 
				1435.86,1571.08 1267.85,1571.08 1267.85,1537.15 			"/>
			<polygon id="XMLID_1696_" class="st5" points="1299.53,1374.15 694,1374.15 612.02,1374.15 704.3,1515.01 1295.7,1515.01 
				1387.98,1374.15 			"/>
			<g id="XMLID_1667_">
				<path id="XMLID_1694_" class="st7" d="M821.51,1452.89v8.69c0,10.46-5.23,16.44-15.32,16.44c-10.09,0-15.32-5.98-15.32-16.44
					v-34c0-10.46,5.23-16.44,15.32-16.44c10.09,0,15.32,5.98,15.32,16.44v6.35h-9.71v-7.01c0-4.67-2.06-6.45-5.32-6.45
					c-3.27,0-5.32,1.77-5.32,6.45v35.31c0,4.67,2.05,6.35,5.32,6.35c3.27,0,5.32-1.68,5.32-6.35v-9.34H821.51z"/>
				<path id="XMLID_1692_" class="st7" d="M838.05,1477.27h-10.27v-65.39h10.27v28.02h11.68v-28.02h10.46v65.39h-10.46v-28.02
					h-11.68V1477.27z"/>
				<path id="XMLID_1689_" class="st7" d="M900.92,1477.27h-10.37l-1.77-11.86h-12.61l-1.77,11.86h-9.43l10.46-65.39h15.04
					L900.92,1477.27z M877.47,1456.53h9.9l-4.86-33.07h-0.19L877.47,1456.53z"/>
				<path id="XMLID_1687_" class="st7" d="M927.36,1458.31h0.19l6.91-46.43h14.29v65.39h-9.71v-46.89h-0.19l-6.91,46.89h-9.71
					l-7.47-46.24h-0.19v46.24h-8.97v-65.39h14.29L927.36,1458.31z"/>
				<path id="XMLID_1684_" class="st7" d="M986.68,1428.04v8.5c0,10.46-5.04,16.16-15.32,16.16h-4.86v24.57h-10.27v-65.39h15.13
					C981.64,1411.88,986.68,1417.58,986.68,1428.04z M966.51,1421.22v22.14h4.86c3.27,0,5.04-1.49,5.04-6.16v-9.81
					c0-4.67-1.77-6.16-5.04-6.16H966.51z"/>
				<path id="XMLID_1682_" class="st7" d="M991.45,1411.88h10.27v65.39h-10.27V1411.88z"/>
				<path id="XMLID_1679_" class="st7" d="M1008.36,1427.57c0-10.46,5.51-16.44,15.6-16.44c10.09,0,15.6,5.98,15.6,16.44v34
					c0,10.46-5.51,16.44-15.6,16.44c-10.09,0-15.6-5.98-15.6-16.44V1427.57z M1018.64,1462.23c0,4.67,2.06,6.45,5.32,6.45
					c3.27,0,5.32-1.77,5.32-6.45v-35.31c0-4.67-2.06-6.45-5.32-6.45c-3.27,0-5.32,1.77-5.32,6.45V1462.23z"/>
				<path id="XMLID_1677_" class="st7" d="M1055.54,1429.91h-0.19v47.36h-9.25v-65.39H1059l10.37,39.14h0.19v-39.14h9.15v65.39
					h-10.55L1055.54,1429.91z"/>
				<path id="XMLID_1675_" class="st7" d="M1099.92,1411.14c9.99,0,15.13,5.98,15.13,16.44v2.06h-9.71v-2.71
					c0-4.67-1.87-6.45-5.14-6.45c-3.27,0-5.13,1.77-5.13,6.45c0,4.77,2.05,8.32,8.78,14.2c8.59,7.57,11.3,12.99,11.3,20.46
					c0,10.46-5.23,16.44-15.32,16.44c-10.09,0-15.32-5.98-15.32-16.44v-4.02h9.71v4.67c0,4.67,2.06,6.35,5.32,6.35
					c3.27,0,5.32-1.68,5.32-6.35c0-4.77-2.05-8.32-8.78-14.2c-8.59-7.57-11.3-12.98-11.3-20.46
					C1084.79,1417.11,1089.93,1411.14,1099.92,1411.14z"/>
				<path id="XMLID_1673_" class="st7" d="M1131.31,1477.27h-10.28v-65.39h10.28v28.02h11.67v-28.02h10.46v65.39h-10.46v-28.02
					h-11.67V1477.27z"/>
				<path id="XMLID_1671_" class="st7" d="M1160.93,1411.88h10.28v65.39h-10.28V1411.88z"/>
				<path id="XMLID_1668_" class="st7" d="M1209.13,1428.04v8.5c0,10.46-5.05,16.16-15.32,16.16h-4.86v24.57h-10.28v-65.39h15.13
					C1204.08,1411.88,1209.13,1417.58,1209.13,1428.04z M1188.95,1421.22v22.14h4.86c3.27,0,5.04-1.49,5.04-6.16v-9.81
					c0-4.67-1.77-6.16-5.04-6.16H1188.95z"/>
			</g>
			<g id="XMLID_1664_">
				<polygon id="XMLID_1666_" class="st7" points="732.15,1421.44 737.89,1439.11 756.48,1439.11 741.44,1450.04 747.19,1467.72 
					732.15,1456.79 717.11,1467.72 722.85,1450.04 707.82,1439.11 726.4,1439.11 				"/>
				<polygon id="XMLID_1665_" class="st7" points="1267.85,1421.44 1273.6,1439.11 1292.18,1439.11 1277.15,1450.04 
					1282.89,1467.72 1267.85,1456.79 1252.81,1467.72 1258.56,1450.04 1243.52,1439.11 1262.11,1439.11 				"/>
			</g>
		</g>
	</g>
</g>
</svg>
